Hi, buddies!
Sorry about the poor quality, but it's the best of the internet for a while.

My first rls, mm7 ;)


--------------------------------

General
Complete name                            : Dragons Riders of Berk - Ep. 8 Portrait of Hiccup as a Buff Man.mp4
Format                                   : MPEG-4
Format profile                           : Base Media / Version 2
Codec ID                                 : mp42
File size                                : 81.7 MiB
Duration                                 : 23mn 14s
Overall bit rate mode                    : Variável
Overall bit rate                         : 492 Kbps
Encoded date                             : UTC 2012-10-12 12:44:26
Tagged date                              : UTC 2012-10-12 12:44:26
gsst                                     : 0
gstd                                     : 1394751
gssd                                     : BADC21B43MH1350179640123720
gshh                                     :

Vídeo
ID                                       : 1
Format                                   : AVC
Format/Info                              : Advanced Video Codec
Format profile                           : Baseline@L3.0
Format settings, CABAC                   : Não
Format settings, ReFrames                : 1 quadro
Codec ID                                 : avc1
Codec ID/Info                            : Advanced Video Coding
Duration                                 : 23mn 14s
Bit rate                                 : 393 Kbps
Maximum bit rate                         : 1 184 Kbps
Width                                    : 640 pixels
Height                                   : 360 pixels
Display aspect ratio                     : 16:9
Frame rate mode                          : TConstante
Frame rate                               : 23.976 fps
Color space                              : YUV
Chroma subsampling                       : 4:2:0
Bit depth                                : 8 bits
Scan type                                : Progressivo
Bits/(Pixel*Frame)                       : 0.071
Stream size                              : 65.4 MiB (80%)
Tagged date                              : UTC 2012-10-12 12:44:27

Áudio
ID                                       : 2
Format                                   : AAC
Format/Info                              : Advanced Audio Codec
Format profile                           : LC
Codec ID                                 : 40
Duration                                 : 23mn 14s
Bit rate mode                            : Variável
Bit rate                                 : 96.0 Kbps
Maximum bit rate                         : 104 Kbps
Channel(s)                               : 2 canais
Channel positions                        : Front: L R
Sampling rate                            : 44.1 KHz
Stream size                              : 16.0 MiB (20%)
Title                                    : IsoMedia File Produced by Google, 5-11-2011
Encoded date                             : UTC 2012-10-12 12:44:26
Tagged date                              : UTC 2012-10-12 12:44:27